<svg width="20" height="20" viewBox="0 0 20 20" fill="none" xmlns="http://www.w3.org/2000/svg">
<path fill-rule="evenodd" clip-rule="evenodd" d="M9.11623 0.365988C9.35064 0.131646 9.66854 0 10 0C10.3315 0 10.6494 0.131646 10.8838 0.365988L19.634 9.11611C19.8088 9.29092 19.9278 9.51363 19.976 9.75607C20.0242 9.99852 19.9995 10.2498 19.9049 10.4782C19.8103 10.7066 19.6501 10.9018 19.4446 11.0391C19.2391 11.1765 18.9974 11.2498 18.7502 11.2499H17.5002V18.75C17.5002 19.0815 17.3685 19.3995 17.1341 19.6339C16.8996 19.8683 16.5817 20 16.2502 20H13.7501C13.4186 20 13.1006 19.8683 12.8662 19.6339C12.6318 19.3995 12.5001 19.0815 12.5001 18.75V14.9999C12.5001 14.6684 12.3684 14.3505 12.1339 14.116C11.8995 13.8816 11.5816 13.7499 11.25 13.7499H8.74997C8.41844 13.7499 8.10049 13.8816 7.86606 14.116C7.63163 14.3505 7.49993 14.6684 7.49993 14.9999V18.75C7.49993 19.0815 7.36823 19.3995 7.13381 19.6339C6.89938 19.8683 6.58143 20 6.2499 20H3.74983C3.4183 20 3.10035 19.8683 2.86593 19.6339C2.6315 19.3995 2.4998 19.0815 2.4998 18.75V11.2499H1.24977C1.00257 11.2498 0.760943 11.1765 0.555425 11.0391C0.349907 10.9018 0.189729 10.7066 0.0951388 10.4782C0.000548705 10.2498 -0.0242057 9.99852 0.024005 9.75607C0.0722157 9.51363 0.191227 9.29092 0.365993 9.11611L9.11623 0.365988Z" fill="#87A2FC"/>
</svg>
