<svg width="44" height="40" viewBox="0 0 44 40" fill="none" xmlns="http://www.w3.org/2000/svg">
<path d="M41.9902 19.0233C41.9902 18.9743 40.6989 14.3491 36.7495 12.9778C34.8924 12.3165 32.854 12.3983 31.055 13.2064H31.001L30.9524 13.2336C29.4828 13.843 27.3379 16.1992 25.4416 18.2724C25.0039 18.7512 24.5825 19.2137 24.1665 19.6599C24.7013 20.2168 25.2046 20.8036 25.6739 21.4175C25.9142 21.7268 26.1123 22.0672 26.2628 22.4296C26.4343 22.8779 26.5257 23.3532 26.5329 23.8335C27.1798 25.3692 28.2527 26.6845 29.6231 27.6216C30.9934 28.5587 32.6029 29.078 34.2588 29.1171H34.2967C35.923 29.0685 37.5027 28.5587 38.8541 27.6461C40.2056 26.7336 41.2739 25.4554 41.9362 23.9587C42.0186 23.7792 42.1384 23.6196 42.2873 23.4907C42.3958 22.006 42.2976 20.5133 41.9956 19.0559C41.9946 19.0449 41.9927 19.034 41.9902 19.0233ZM37.4573 22.0106C37.0753 22.0798 36.6816 21.9964 36.3598 21.7779C36.038 21.5595 35.8134 21.2233 35.7338 20.8407C35.6711 20.546 35.5027 20.2849 35.2608 20.1075C35.0189 19.93 34.7206 19.8487 34.4228 19.879C34.1251 19.9093 33.8489 20.0492 33.6472 20.2718C33.4455 20.4945 33.3324 20.7842 33.3296 21.0856C33.3296 21.4824 33.173 21.8631 32.8944 22.1437C32.6158 22.4243 32.2379 22.582 31.8438 22.582C31.4498 22.582 31.0719 22.4243 30.7932 22.1437C30.5146 21.8631 30.3581 21.4824 30.3581 21.0856C30.3603 20.0421 30.7465 19.0365 31.4422 18.2632C32.1378 17.4898 33.0934 17.0037 34.1242 16.8988C35.1551 16.7939 36.1879 17.0777 37.0231 17.6952C37.8583 18.3127 38.4365 19.2202 38.6459 20.2422C38.6843 20.437 38.6839 20.6375 38.6448 20.8322C38.6057 21.0269 38.5286 21.2118 38.4181 21.3762C38.3075 21.5407 38.1657 21.6815 38.0008 21.7904C37.8358 21.8993 37.6511 21.9741 37.4573 22.0106Z" fill="#121A6A"/>
<path d="M21.9893 27.2289C23.0699 25.8903 23.4319 24.9653 23.5399 24.3667C23.3726 23.9161 23.2301 23.4565 23.1131 22.99C22.8862 22.7071 22.5404 22.3044 21.9893 21.7222C21.406 22.2696 20.8941 22.8895 20.4658 23.5668C20.3903 23.8232 20.381 24.0948 20.4387 24.3558C20.5468 24.9544 20.9196 25.8794 21.9893 27.2289Z" fill="#121A6A"/>
<path d="M34.2587 32.1045C32.5329 32.0827 30.8344 31.6669 29.2913 30.8884C27.7481 30.1098 26.4004 28.9889 25.3496 27.6099C24.6899 28.6558 23.9259 29.6313 23.0696 30.521L21.989 31.6692L20.9085 30.521C20.1026 29.6747 19.379 28.7527 18.7474 27.7677C17.7013 29.0973 16.376 30.1772 14.8664 30.9298C13.3569 31.6825 11.7006 32.0892 10.0165 32.1208H9.96792C7.32661 32.1003 4.77829 31.1361 2.77686 29.4001C2.8687 29.9987 2.95514 30.6516 3.03619 31.3699C5.38976 34.0738 8.28808 36.2419 11.5383 37.7299C14.7885 39.218 18.3161 39.9918 21.8864 40H21.989H22.0971C25.6702 39.9963 29.2014 39.2256 32.4556 37.7394C35.7097 36.2531 38.6119 34.0854 40.9689 31.3808C41.0391 30.7387 41.1148 30.151 41.2012 29.6069C39.2482 31.1985 36.8194 32.0803 34.3073 32.1099L34.2587 32.1045Z" fill="#121A6A"/>
<path d="M9.94652 29.1171H9.98433C11.5415 29.0724 13.0575 28.6029 14.3705 27.7587C15.6836 26.9144 16.7445 25.7271 17.4401 24.3232C17.3913 23.6966 17.4798 23.0669 17.6995 22.4786C17.8832 22.0106 18.2938 21.3086 19.8173 19.6871C19.4013 19.2409 18.9799 18.7784 18.5423 18.2995C16.6459 16.2209 14.501 13.8702 13.0315 13.2608C13.0136 13.2551 12.9971 13.2458 12.9829 13.2336H12.9288C11.1279 12.4257 9.08795 12.3439 7.22894 13.005C3.27952 14.3763 2.00447 18.9906 1.99367 19.0505C1.8031 20.0686 1.6911 21.1001 1.65869 22.1357C2.59337 26.1896 6.05654 29.1171 9.94652 29.1171ZM5.35958 20.2476C5.5633 19.2197 6.13981 18.305 6.9767 17.6819C7.8136 17.0588 8.85091 16.772 9.88638 16.8773C10.9219 16.9826 11.8813 17.4725 12.5776 18.2515C13.2739 19.0305 13.6572 20.0428 13.6528 21.091C13.6528 21.4879 13.4963 21.8685 13.2176 22.1491C12.939 22.4297 12.5611 22.5874 12.167 22.5874C11.773 22.5874 11.3951 22.4297 11.1165 22.1491C10.8378 21.8685 10.6813 21.4879 10.6813 21.091C10.6852 20.7849 10.575 20.4885 10.3726 20.2601C10.1702 20.0317 9.8902 19.888 9.5878 19.8573C9.2854 19.8266 8.98253 19.9111 8.73891 20.0941C8.49529 20.2771 8.32859 20.5454 8.27166 20.8461C8.23264 21.0387 8.15634 21.2217 8.04711 21.3845C7.93789 21.5474 7.79788 21.687 7.63508 21.7954C7.47228 21.9038 7.28988 21.9788 7.09829 22.0162C6.9067 22.0536 6.70968 22.0526 6.51847 22.0133C6.13231 21.9339 5.79326 21.7033 5.57593 21.3722C5.46831 21.2082 5.39382 21.0245 5.3567 20.8315C5.31958 20.6386 5.32056 20.4401 5.35958 20.2476Z" fill="#121A6A"/>
<path d="M31.3306 1.77392C25.3244 -0.591307 18.654 -0.591307 12.6478 1.77392C10.9022 2.46146 8.9985 2.63508 7.15865 2.27453L0 0.854318C0.340373 1.58347 0.632122 2.23644 0.886051 2.81868C1.84234 4.99525 2.23134 5.77338 3.31729 6.31208H3.3443C3.38414 6.33428 3.42209 6.35976 3.45776 6.38826L3.57122 6.46444L3.69548 6.58415L3.77653 6.66577L3.87917 6.81269C3.90087 6.84226 3.92071 6.87315 3.9386 6.9052C3.96705 6.9599 3.9923 7.01622 4.01424 7.07388C4.01424 7.10653 4.01424 7.13374 4.05206 7.16639C4.07157 7.22673 4.08603 7.28862 4.09529 7.35139C4.09789 7.38217 4.09789 7.41312 4.09529 7.4439C4.10066 7.5109 4.10066 7.57823 4.09529 7.64523V7.7323C4.08977 7.80196 4.07893 7.87109 4.06287 7.93907V8.02069C4.04332 8.08982 4.01802 8.15717 3.98723 8.22202C3.98723 8.22202 3.98723 8.26556 3.96022 8.29276V8.32541C3.26575 9.61773 2.77542 11.0111 2.50688 12.4555C3.56714 11.4042 4.84595 10.6032 6.25098 10.1102C8.86607 9.18286 11.7374 9.3215 14.2525 10.4965C16.3055 11.3998 18.5747 13.8539 20.7358 16.2318C21.168 16.7107 21.5894 17.1677 21.9946 17.6031C22.4052 17.1677 22.8212 16.7107 23.2588 16.2318C25.4199 13.8539 27.6675 11.3998 29.7421 10.4965C32.2559 9.32411 35.1246 9.1855 37.7382 10.1102C39.1455 10.6018 40.4263 11.4029 41.4877 12.4555C41.215 11.0115 40.723 9.61844 40.029 8.32541C40.0302 8.31275 40.0302 8.29999 40.029 8.28732C40.029 8.26011 40.029 8.23835 40.002 8.21658C39.973 8.15159 39.9495 8.08424 39.9317 8.01525C39.9292 7.9881 39.9292 7.96077 39.9317 7.93363C39.9157 7.86564 39.9048 7.79651 39.8993 7.72685C39.8966 7.6979 39.8966 7.66875 39.8993 7.63979C39.8993 7.57449 39.8993 7.50375 39.8993 7.43846V7.34595C39.8993 7.2861 39.9263 7.2208 39.9479 7.16094L39.9804 7.06844C40.0041 7.01069 40.0312 6.95437 40.0614 6.89976L40.1154 6.80725C40.1479 6.75573 40.184 6.70663 40.2235 6.66033C40.2235 6.63312 40.2775 6.60592 40.3045 6.57871C40.3433 6.53607 40.3848 6.49608 40.4288 6.459L40.5369 6.38282L40.6503 6.30664H40.6773C41.7579 5.76249 42.1523 4.98981 43.1086 2.81868C43.3679 2.231 43.6488 1.57803 44 0.848877L36.8144 2.27453C34.9762 2.63282 33.0748 2.45924 31.3306 1.77392Z" fill="#121A6A"/>
</svg>
