<svg width="16" height="20" viewBox="0 0 16 20" fill="none" xmlns="http://www.w3.org/2000/svg">
<path d="M10.087 0H5.91304C2.59739 0 0 4.39259 0 10C0 15.6074 2.59739 20 5.91304 20H10.087C13.4026 20 16 15.6074 16 10C16 4.39259 13.4026 0 10.087 0ZM13.3226 14.0741H11.3313C11.577 13.1052 11.7311 12.1126 11.7913 11.1111H13.8722C13.8037 12.119 13.6191 13.1141 13.3226 14.0741ZM11.7913 8.88889C11.7311 7.88738 11.577 6.89479 11.3313 5.92593H13.3226C13.6191 6.88588 13.8037 7.88099 13.8722 8.88889H11.7913ZM12.2809 3.7037H10.5417C10.2972 3.18132 10.006 2.6852 9.67217 2.22222H10.087C10.5539 2.22222 11.413 2.43056 12.2809 3.7037ZM3.3713 15.7259C2.54261 14.2139 2.08696 12.1806 2.08696 10C2.08696 7.81944 2.54261 5.78611 3.3713 4.27407C4.34783 2.48889 5.38348 2.22222 5.91304 2.22222C6.44261 2.22222 7.47826 2.48889 8.45478 4.27407C9.28348 5.78611 9.73913 7.81944 9.73913 10C9.73913 12.1806 9.28348 14.2139 8.45478 15.7259C7.47826 17.5111 6.44261 17.7778 5.91304 17.7778C5.38348 17.7778 4.34783 17.5111 3.3713 15.7259ZM10.087 17.7778H9.67044C10.0042 17.3148 10.2954 16.8187 10.54 16.2963H12.2791C11.413 17.5694 10.5539 17.7778 10.087 17.7778Z"/>
</svg>