<svg width="28" height="28" viewBox="0 0 28 28" fill="none" xmlns="http://www.w3.org/2000/svg">
<path d="M6.5 21.5V21.515M6.5 6.5V6.515M21.5 6.5V6.515M21.5 17H17V21.5M26 17V17.015M17 26H21.5M21.5 21.5H26V26M2 3.5C2 3.10218 2.15804 2.72064 2.43934 2.43934C2.72064 2.15804 3.10218 2 3.5 2H9.5C9.89782 2 10.2794 2.15804 10.5607 2.43934C10.842 2.72064 11 3.10218 11 3.5V9.5C11 9.89782 10.842 10.2794 10.5607 10.5607C10.2794 10.842 9.89782 11 9.5 11H3.5C3.10218 11 2.72064 10.842 2.43934 10.5607C2.15804 10.2794 2 9.89782 2 9.5V3.5ZM17 3.5C17 3.10218 17.158 2.72064 17.4393 2.43934C17.7206 2.15804 18.1022 2 18.5 2H24.5C24.8978 2 25.2794 2.15804 25.5607 2.43934C25.842 2.72064 26 3.10218 26 3.5V9.5C26 9.89782 25.842 10.2794 25.5607 10.5607C25.2794 10.842 24.8978 11 24.5 11H18.5C18.1022 11 17.7206 10.842 17.4393 10.5607C17.158 10.2794 17 9.89782 17 9.5V3.5ZM2 18.5C2 18.1022 2.15804 17.7206 2.43934 17.4393C2.72064 17.158 3.10218 17 3.5 17H9.5C9.89782 17 10.2794 17.158 10.5607 17.4393C10.842 17.7206 11 18.1022 11 18.5V24.5C11 24.8978 10.842 25.2794 10.5607 25.5607C10.2794 25.842 9.89782 26 9.5 26H3.5C3.10218 26 2.72064 25.842 2.43934 25.5607C2.15804 25.2794 2 24.8978 2 24.5V18.5Z" stroke="#121A6A" stroke-width="2.5" stroke-linecap="round" stroke-linejoin="round"/>
</svg>
